:FULLY-SPECIFIED
:FORCE-ALL-JOINTS-BE-3DOF
:DEGREES
34
root 5.98415 16.899 -28.0772 10.0188 -1.8422 -2.2814
lfemur -20.1475 1.67498 -19.7686
ltibia 33.8039 -0 0
lfoot -36.0574 4.18153 0.00179265
ltoes 36.3481 -0 0
rfemur -16.8096 7.38172 19.5811
rtibia 30.5216 -0 0
rfoot -27.4979 -19.168 0.00116983
rtoes 14.909 -0 0
lowerback -5.48249 2.55538 -0.954255
upperback -1.93221 3.44336 0.842361
thorax 0.972985 1.72657 1.60957
lowerneck -9.55481 -1.65837 2.64763
upperneck -2.56094 -2.47511 0.764333
head 0.768273 -1.23946 -0.289072
lclavicle 2.01735e-14 2.6339e-15 0
lhumerus -41.538 -12.7811 97.094
lradius 38.7778 -0 0
lwrist 5.65093 0 0
lhand -11.1005 6.29592 3.62404e-05
lfingers 7.12502 -0 0
lthumb 14.9237 35.7383 3.5476e-05
rclavicle 2.01735e-14 2.6339e-15 0
rhumerus -40.6747 -5.03884 -88.6671
rradius 39.1876 -0 0
rwrist 11.0157 0 0
rhand -26.826 -19.9587 -0.000158662
rfingers 7.12502 -0 0
rthumb -0.252046 -49.9383 -0.000153322
35
root 5.9768 16.8988 -28.0786 10.0559 -1.78026 -2.23332
lfemur -20.1754 1.67438 -19.7984
ltibia 33.7803 -0 0
lfoot -36.0001 4.09912 0.00960825
ltoes 36.3072 -0 0
rfemur -16.8239 7.2701 19.554
rtibia 30.4883 -0 0
rfoot -27.4823 -19.1629 0.00194106
rtoes 14.4262 -0 0
lowerback -5.53625 2.51404 -0.854391
upperback -1.91681 3.38444 0.748885
thorax 1.03165 1.69594 1.45774
lowerneck -9.55119 -1.64392 2.67461
upperneck -2.60249 -2.45844 0.838873
head 0.755077 -1.23068 -0.269511
lclavicle 2.01735e-14 2.6339e-15 0
lhumerus -41.5276 -12.8608 97.0197
lradius 38.9681 -0 0
lwrist 5.76681 0 0
lhand -11.105 6.20424 0.000162663
lfingers 7.12502 -0 0
lthumb 14.9194 35.6469 0.0001574
rclavicle 2.01735e-14 2.6339e-15 0
rhumerus -40.6315 -5.0242 -88.8175
rradius 39.1827 -0 0
rwrist 10.9645 0 0
rhand -26.8104 -20.0036 -0.00028755
rfingers 7.12502 -0 0
rthumb -0.236914 -49.9833 -0.000278126
36
root 5.96927 16.8987 -28.0801 10.0956 -1.71651 -2.17698
lfemur -20.1894 1.65876 -19.8399
ltibia 33.7342 -0 0
lfoot -35.9622 4.02259 0.0219739
ltoes 36.2792 -0 0
rfemur -16.8468 7.11393 19.5175
rtibia 30.4619 -0 0
rfoot -27.4791 -19.1179 0.00234426
rtoes 13.9079 -0 0
lowerback -5.59145 2.469 -0.759624
upperback -1.90168 3.32098 0.650487
thorax 1.09036 1.66311 1.30329
lowerneck -9.54873 -1.62889 2.70424
upperneck -2.64563 -2.44121 0.912949
head 0.741505 -1.22171 -0.250548
lclavicle 2.01735e-14 2.6339e-15 0
lhumerus -41.5201 -12.9449 96.9418
lradius 39.1617 -0 0
lwrist 5.88434 0 0
lhand -11.1133 6.06907 0.000357511
lfingers 7.12502 -0 0
lthumb 14.9113 35.5124 0.000344872
rclavicle 2.01735e-14 2.6339e-15 0
rhumerus -40.5911 -5.01413 -88.9758
rradius 39.1809 -0 0
rwrist 10.9004 0 0
rhand -26.7897 -20.0572 -0.00038742
rfingers 7.12502 -0 0
rthumb -0.216956 -50.0369 -0.000375077
37
root 5.96163 16.8984 -28.0817 10.1377 -1.65039 -2.11447
lfemur -20.1956 1.6345 -19.89
ltibia 33.675 -0 0
lfoot -35.937 3.94657 0.0374514
ltoes 36.2617 -0 0
rfemur -16.8769 6.91843 19.4737
rtibia 30.4417 -0 0
rfoot -27.4866 -19.0385 0.00243661
rtoes 13.3568 -0 0
lowerback -5.64678 2.42117 -0.668827
upperback -1.8867 3.25411 0.548463
thorax 1.14851 1.62867 1.14696
lowerneck -9.54742 -1.61372 2.73568
upperneck -2.69065 -2.4239 0.986322
head 0.727479 -1.21281 -0.232126
lclavicle 2.01735e-14 2.6339e-15 0
lhumerus -41.5148 -13.0321 96.8606
lradius 39.3579 -0 0
lwrist 6.00277 0 0
lhand -11.1252 5.89645 0.00059316
lfingers 7.12502 -0 0
lthumb 14.8999 35.3406 0.000571377
rclavicle 2.01735e-14 2.6339e-15 0
rhumerus -40.5529 -5.00603 -89.1406
rradius 39.1827 -0 0
rwrist 10.8249 0 0
rhand -26.7644 -20.1184 -0.000457984
rfingers 7.12502 -0 0
rthumb -0.19248 -50.0981 -0.000443839
38
root 5.95394 16.8981 -28.0835 10.1817 -1.58136 -2.04792
lfemur -20.2004 1.60798 -19.9458
ltibia 33.6121 -0 0
lfoot -35.9174 3.86567 0.0546276
ltoes 36.2523 -0 0
rfemur -16.9128 6.68877 19.4253
rtibia 30.4272 -0 0
rfoot -27.5029 -18.9302 0.00229025
rtoes 12.7755 -0 0
lowerback -5.70093 2.37148 -0.580874
upperback -1.87179 3.18496 0.444109
thorax 1.20549 1.59321 0.989482
lowerneck -9.54724 -1.59886 2.76806
upperneck -2.73782 -2.40702 1.05875
head 0.712923 -1.20421 -0.214184
lclavicle 2.01735e-14 2.6339e-15 0
lhumerus -41.511 -13.1208 96.7765
lradius 39.5559 -0 0
lwrist 6.12131 0 0
lhand -11.14 5.69247 0.000839564
lfingers 7.12502 -0 0
lthumb 14.8856 35.1377 0.000808092
rclavicle 2.01735e-14 2.6339e-15 0
rhumerus -40.5167 -4.9973 -89.3101
rradius 39.1888 -0 0
rwrist 10.739 0 0
rhand -26.7347 -20.1861 -0.000498599
rfingers 7.12502 -0 0
rthumb -0.163797 -50.1659 -0.000483727
39
root 5.94628 16.8977 -28.0853 10.227 -1.50885 -1.97942
lfemur -20.21 1.58556 -20.0044
ltibia 33.555 -0 0
lfoot -35.8968 3.77453 0.0721114
ltoes 36.2487 -0 0
rfemur -16.9532 6.43016 19.3746
rtibia 30.4175 -0 0
rfoot -27.5262 -18.7986 0.00198246
rtoes 12.1666 -0 0
lowerback -5.7526 2.32086 -0.494645
upperback -1.85686 3.11465 0.338721
thorax 1.2607 1.55729 0.831607
lowerneck -9.54817 -1.58475 2.80054
upperneck -2.78741 -2.39106 1.13001
head 0.697758 -1.19616 -0.196664
lclavicle 2.01735e-14 2.6339e-15 0
lhumerus -41.5079 -13.2097 96.6899
lradius 39.7549 -0 0
lwrist 6.23923 0 0
lhand -11.1575 5.46318 0.00106726
lfingers 7.12502 -0 0
lthumb 14.8688 34.9096 0.00102676
rclavicle 2.01735e-14 2.6339e-15 0
rhumerus -40.4821 -4.98537 -89.4828
rradius 39.1996 -0 0
rwrist 10.6441 0 0
rhand -26.7009 -20.2593 -0.000508887
rfingers 7.12502 -0 0
rthumb -0.131216 -50.2391 -0.000494321
40
root 5.93872 16.8971 -28.0873 10.2732 -1.4323 -1.91109
lfemur -20.2307 1.5736 -20.0627
ltibia 33.5131 -0 0
lfoot -35.8682 3.66777 0.0885377
ltoes 36.2485 -0 0
rfemur -16.9967 6.14781 19.3239
rtibia 30.4121 -0 0
rfoot -27.5547 -18.6492 0.00158765
rtoes 11.5328 -0 0
lowerback -5.80046 2.27022 -0.409023
upperback -1.84184 3.04431 0.233595
thorax 1.3135 1.52149 0.674075
lowerneck -9.5502 -1.57183 2.83228
upperneck -2.83971 -2.37653 1.19985
head 0.681907 -1.1889 -0.179505
lclavicle 2.01735e-14 2.6339e-15 0
lhumerus -41.5047 -13.2973 96.6011
lradius 39.9543 -0 0
lwrist 6.35574 0 0
lhand -11.1772 5.21466 0.00124991
lfingers 7.12502 -0 0
lthumb 14.8499 34.6625 0.00120212
rclavicle 2.01735e-14 2.6339e-15 0
rhumerus -40.4487 -4.96763 -89.6573
rradius 39.2159 -0 0
rwrist 10.5416 0 0
rhand -26.6635 -20.3368 -0.000489307
rfingers 7.12502 -0 0
rthumb -0.0950459 -50.3166 -0.000476007
41
root 5.93132 16.8962 -28.0893 10.32 -1.35114 -1.84504
lfemur -20.2688 1.57843 -20.1178
ltibia 33.4958 -0 0
lfoot -35.8248 3.54002 0.102577
ltoes 36.2494 -0 0
rfemur -17.042 5.84692 19.2758
rtibia 30.4102 -0 0
rfoot -27.5864 -18.4877 0.00117108
rtoes 10.8767 -0 0
lowerback -5.84321 2.22049 -0.322894
upperback -1.82664 2.97508 0.130025
thorax 1.36328 1.48638 0.517632
lowerneck -9.55331 -1.56056 2.8624
upperneck -2.89498 -2.36391 1.26804
head 0.665292 -1.18268 -0.162649
lclavicle 2.01735e-14 2.6339e-15 0
lhumerus -41.5008 -13.3823 96.5105
lradius 40.1532 -0 0
lwrist 6.47011 0 0
lhand -11.1986 4.95295 0.00136641
lfingers 7.12502 -0 0
lthumb 14.8292 34.4023 0.00131395
rclavicle 2.01735e-14 2.6339e-15 0
rhumerus -40.4163 -4.9415 -89.8318
rradius 39.2381 -0 0
rwrist 10.4326 0 0
rhand -26.6226 -20.4176 -0.000441649
rfingers 7.12502 -0 0
rthumb -0.0555961 -50.3974 -0.000430465
42
root 5.92416 16.8952 -28.0914 10.3667 -1.2648 -1.78336
lfemur -20.3306 1.60641 -20.1667
ltibia 33.5126 -0 0
lfoot -35.7596 3.38589 0.11295
ltoes 36.2491 -0 0
rfemur -17.0879 5.53272 19.2325
rtibia 30.4111 -0 0
rfoot -27.6195 -18.3195 0.000784405
rtoes 10.2009 -0 0
lowerback -5.87954 2.17258 -0.235149
upperback -1.81121 2.90807 0.0293093
thorax 1.40942 1.45253 0.363023
lowerneck -9.55751 -1.55137 2.89008
upperneck -2.95352 -2.35372 1.33434
head 0.647836 -1.17772 -0.146034
lclavicle 2.01735e-14 2.6339e-15 0
lhumerus -41.4955 -13.4631 96.4185
lradius 40.351 -0 0
lwrist 6.58156 0 0
lhand -11.2214 4.68414 0.00140254
lfingers 7.12502 -0 0
lthumb 14.8073 34.1351 0.0013486
rclavicle 2.01735e-14 2.6339e-15 0
rhumerus -40.3845 -4.90439 -90.0048
rradius 39.2669 -0 0
rwrist 10.3186 0 0
rhand -26.5787 -20.5006 -0.000369483
rfingers 7.12502 -0 0
rthumb -0.013176 -50.4804 -0.0003611
43
root 5.9173 16.8938 -28.0936 10.413 -1.1727 -1.72818
lfemur -20.4224 1.66386 -20.2066
ltibia 33.5729 -0 0
lfoot -35.6659 3.20003 0.118454
ltoes 36.2451 -0 0
rfemur -17.1332 5.21042 19.1963
rtibia 30.4142 -0 0
rfoot -27.6522 -18.1502 0.000463056
rtoes 9.50803 -0 0
lowerback -5.90813 2.1274 -0.144682
upperback -1.79547 2.84442 -0.0672578
thorax 1.45128 1.42049 0.210997
lowerneck -9.56276 -1.54472 2.91445
upperneck -3.0156 -2.34645 1.39853
head 0.629461 -1.17428 -0.129603
lclavicle 2.01735e-14 2.6339e-15 0
lhumerus -41.4879 -13.5383 96.3255
lradius 40.5469 -0 0
lwrist 6.68933 0 0
lhand -11.245 4.41428 0.00135214
lfingers 7.12502 -0 0
lthumb 14.7845 33.867 0.00130018
rclavicle 2.01735e-14 2.6339e-15 0
rhumerus -40.353 -4.8537 -90.1747
rradius 39.3028 -0 0
rwrist 10.2007 0 0
rhand -26.532 -20.5846 -0.000278541
rfingers 7.12502 -0 0
rthumb 0.0319052 -50.5645 -0.000273407
44
root 5.91082 16.8922 -28.0957 10.4584 -1.07427 -1.68159
lfemur -20.5505 1.75714 -20.2345
ltibia 33.6861 -0 0
lfoot -35.5367 2.97704 0.11799
ltoes 36.2351 -0 0
rfemur -17.1766 4.88525 19.1697
rtibia 30.4189 -0 0
rfoot -27.6826 -17.9853 0.00022533
rtoes 8.80079 -0 0
lowerback -5.92767 2.08587 -0.0503879
upperback -1.7794 2.78525 -0.15838
thorax 1.48823 1.39081 0.062303
lowerneck -9.56907 -1.54105 2.93467
upperneck -3.0815 -2.34259 1.46037
head 0.610088 -1.17259 -0.113293
lclavicle 2.01735e-14 2.6339e-15 0
lhumerus -41.4775 -13.6064 96.2318
lradius 40.7401 -0 0
lwrist 6.79267 0 0
lhand -11.2692 4.14943 0.00121791
lfingers 7.12502 -0 0
lthumb 14.7612 33.6038 0.00117126
rclavicle 2.01735e-14 2.6339e-15 0
rhumerus -40.3215 -4.78685 -90.3399
rradius 39.3464 -0 0
rwrist 10.0803 0 0
rhand -26.4829 -20.6687 -0.000177035
rfingers 7.12502 -0 0
rthumb 0.0793381 -50.6486 -0.000175288
